<?xml version="1.0" encoding="UTF-8" standalone="no"?>
<svg width="175px" height="41px" viewBox="0 0 175 41" version="1.1" xmlns="http://www.w3.org/2000/svg" xmlns:xlink="http://www.w3.org/1999/xlink">
    <!-- Generator: Sketch 42 (36781) - http://www.bohemiancoding.com/sketch -->
    <title>Logo Green</title>
    <desc>Created with Sketch.</desc>
    <defs/>
    <g id="Extra" stroke="none" stroke-width="1" fill="none" fill-rule="evenodd">
        <g id="Desktop-HD" transform="translate(-338.000000, -100.000000)">
            <g id="Logos" transform="translate(338.000000, 100.000000)">
                <g id="Logo-Green">
                    <g id="Group-4">
                        <path d="M7.33866667,7.24333333 C10.768,3.814 15.328,1.926 20.1773333,1.926 C25.0286667,1.926 29.586,3.814 33.0153333,7.24333333 C36.4453333,10.6733333 38.3333333,15.2306667 38.3333333,20.082 C38.3333333,24.9306667 36.4453333,29.4906667 33.0153333,32.9206667 C29.586,36.35 25.0286667,38.238 20.1773333,38.238 C15.328,38.238 10.768,36.35 7.33866667,32.9206667 C3.90866667,29.4906667 2.02066667,24.9306667 2.02066667,20.082 C2.02066667,15.2306667 3.90866667,10.6733333 7.33866667,7.24333333 M20.1773333,39.8293333 C25.4533333,39.8293333 30.4113333,37.7746667 34.1433333,34.0453333 C37.8726667,30.3166667 39.9273333,25.3553333 39.9273333,20.082 C39.9273333,14.806 37.8726667,9.84733333 34.1433333,6.116 C30.4113333,2.38666667 25.4533333,0.332 20.1773333,0.332 C14.9033333,0.332 9.94266667,2.38666667 6.21333333,6.116 C2.482,9.84733333 0.43,14.806 0.43,20.082 C0.43,25.3553333 2.482,30.3166667 6.21333333,34.0453333 C9.94266667,37.7746667 14.9033333,39.8293333 20.1773333,39.8293333" id="Fill-32" fill="#23CF5F"/>
                        <path d="M7.33866667,7.24333333 C10.768,3.814 15.328,1.926 20.1773333,1.926 C25.0286667,1.926 29.586,3.814 33.0153333,7.24333333 C36.4453333,10.6733333 38.3333333,15.2306667 38.3333333,20.082 C38.3333333,24.9306667 36.4453333,29.4906667 33.0153333,32.9206667 C29.586,36.35 25.0286667,38.238 20.1773333,38.238 C15.328,38.238 10.768,36.35 7.33866667,32.9206667 C3.90866667,29.4906667 2.02066667,24.9306667 2.02066667,20.082 C2.02066667,15.2306667 3.90866667,10.6733333 7.33866667,7.24333333 L7.33866667,7.24333333 L7.33866667,7.24333333 Z M20.1773333,39.8293333 C25.4533333,39.8293333 30.4113333,37.7746667 34.1433333,34.0453333 C37.8726667,30.3166667 39.9273333,25.3553333 39.9273333,20.082 C39.9273333,14.806 37.8726667,9.84733333 34.1433333,6.116 C30.4113333,2.38666667 25.4533333,0.332 20.1773333,0.332 C14.9033333,0.332 9.94266667,2.38666667 6.21333333,6.116 C2.482,9.84733333 0.43,14.806 0.43,20.082 C0.43,25.3553333 2.482,30.3166667 6.21333333,34.0453333 C9.94266667,37.7746667 14.9033333,39.8293333 20.1773333,39.8293333 L20.1773333,39.8293333 L20.1773333,39.8293333 Z" id="Stroke-33" stroke="#23CF5F" stroke-width="0.5"/>
                        <path d="M18.4346667,17.8866667 C18.4346667,16.8866667 19.1926667,16.0713333 20.1326667,16.0426667 C21.0726667,16.0713333 21.8306667,16.8866667 21.8306667,17.8866667 C21.8306667,18.582 21.0393333,19.84 20.1326667,20.918 C19.2293333,19.84 18.4346667,18.582 18.4346667,17.8866667 M7.81266667,16.8033333 L15.5413333,28.806 C15.6926667,29.04 15.948,29.1786667 16.2266667,29.1786667 C16.3826667,29.1786667 16.534,29.134 16.6666667,29.0506667 C16.8333333,28.9413333 16.948,28.7826667 17.0026667,28.6053333 L20.0753333,23.4726667 L23.4713333,28.746 C23.4846667,28.762 23.4946667,28.7773333 23.508,28.7926667 C23.57,28.8946667 23.6533333,28.9806667 23.758,29.0506667 C23.8906667,29.134 24.0413333,29.1786667 24.198,29.1786667 C24.4766667,29.1786667 24.732,29.04 24.88,28.806 L32.612,16.8033333 C32.6273333,16.78 32.6433333,16.754 32.656,16.728 L33.966,16.728 C34.4193333,16.728 34.7893333,16.3606667 34.7893333,15.9046667 C34.7893333,15.452 34.4193333,15.082 33.966,15.082 L28.948,15.082 C28.492,15.082 28.1226667,15.452 28.1226667,15.9046667 C28.1226667,16.3606667 28.492,16.728 28.948,16.728 L30.7266667,16.728 L24.0626667,27.0766667 L21.026,22.3633333 C21.3386667,22.012 21.7966667,21.4673333 22.2346667,20.84 C23.0466667,19.676 23.456,18.6833333 23.456,17.8866667 C23.456,16.04 22.0466667,14.5273333 20.276,14.4233333 C20.2446667,14.4206667 20.2133333,14.418 20.182,14.418 L20.1326667,14.418 L20.0833333,14.418 C20.052,14.418 20.0206667,14.4206667 19.9893333,14.4233333 C18.2186667,14.5273333 16.81,16.04 16.81,17.8866667 C16.81,18.6833333 17.2213333,19.676 18.0313333,20.84 C18.432,21.418 18.854,21.9233333 19.1613333,22.2746667 L16.3226667,27.014 L9.69533333,16.728 L11.4766667,16.728 C11.93,16.728 12.2993333,16.3606667 12.2993333,15.9046667 C12.2993333,15.452 11.93,15.082 11.4766667,15.082 L6.45866667,15.082 C6.00266667,15.082 5.63266667,15.452 5.63266667,15.9046667 C5.63266667,16.3606667 6.00266667,16.728 6.45866667,16.728 L7.768,16.728 C7.78133333,16.754 7.794,16.78 7.81266667,16.8033333" id="Fill-35" fill="#23CF5F"/>
                        <path d="M18.4346667,17.8866667 C18.4346667,16.8866667 19.1926667,16.0713333 20.1326667,16.0426667 C21.0726667,16.0713333 21.8306667,16.8866667 21.8306667,17.8866667 C21.8306667,18.582 21.0393333,19.84 20.1326667,20.918 C19.2293333,19.84 18.4346667,18.582 18.4346667,17.8866667 L18.4346667,17.8866667 L18.4346667,17.8866667 Z M7.81266667,16.8033333 L15.5413333,28.806 C15.6926667,29.04 15.948,29.1786667 16.2266667,29.1786667 C16.3826667,29.1786667 16.534,29.134 16.6666667,29.0506667 C16.8333333,28.9413333 16.948,28.7826667 17.0026667,28.6053333 L20.0753333,23.4726667 L23.4713333,28.746 C23.4846667,28.762 23.4946667,28.7773333 23.508,28.7926667 C23.57,28.8946667 23.6533333,28.9806667 23.758,29.0506667 C23.8906667,29.134 24.0413333,29.1786667 24.198,29.1786667 C24.4766667,29.1786667 24.732,29.04 24.88,28.806 L32.612,16.8033333 C32.6273333,16.78 32.6433333,16.754 32.656,16.728 L33.966,16.728 C34.4193333,16.728 34.7893333,16.3606667 34.7893333,15.9046667 C34.7893333,15.452 34.4193333,15.082 33.966,15.082 L28.948,15.082 C28.492,15.082 28.1226667,15.452 28.1226667,15.9046667 C28.1226667,16.3606667 28.492,16.728 28.948,16.728 L30.7266667,16.728 L24.0626667,27.0766667 L21.026,22.3633333 C21.3386667,22.012 21.7966667,21.4673333 22.2346667,20.84 C23.0466667,19.676 23.456,18.6833333 23.456,17.8866667 C23.456,16.04 22.0466667,14.5273333 20.276,14.4233333 C20.2446667,14.4206667 20.2133333,14.418 20.182,14.418 L20.1326667,14.418 L20.0833333,14.418 C20.052,14.418 20.0206667,14.4206667 19.9893333,14.4233333 C18.2186667,14.5273333 16.81,16.04 16.81,17.8866667 C16.81,18.6833333 17.2213333,19.676 18.0313333,20.84 C18.432,21.418 18.854,21.9233333 19.1613333,22.2746667 L16.3226667,27.014 L9.69533333,16.728 L11.4766667,16.728 C11.93,16.728 12.2993333,16.3606667 12.2993333,15.9046667 C12.2993333,15.452 11.93,15.082 11.4766667,15.082 L6.45866667,15.082 C6.00266667,15.082 5.63266667,15.452 5.63266667,15.9046667 C5.63266667,16.3606667 6.00266667,16.728 6.45866667,16.728 L7.768,16.728 C7.78133333,16.754 7.794,16.78 7.81266667,16.8033333 L7.81266667,16.8033333 L7.81266667,16.8033333 Z" id="Stroke-36" stroke="#23CF5F" stroke-width="0.5"/>
                    </g>
                    <g id="Group-2" transform="translate(51.000000, 13.000000)" fill="#23CF5F">
                        <path d="M0.9973333,2.6806667 C0.94,2.548 0.9013333,2.3786667 0.9013333,2.2253333 C0.9013333,1.582 1.4533333,1.0873333 2.0986667,1.0873333 C2.6666667,1.0873333 3.104,1.4493333 3.2553333,1.9413333 L6.3126667,11.0713333 L9.31,1.9806667 C9.5,1.4286667 9.8986667,1.0506667 10.4893333,1.0506667 L10.6586667,1.0506667 C11.2473333,1.0506667 11.664,1.4286667 11.836,1.9806667 L14.836,11.0713333 L17.8906667,1.9233333 C18.0626667,1.4493333 18.4606667,1.0873333 19.0313333,1.0873333 C19.656,1.0873333 20.1873333,1.582 20.1873333,2.2066667 C20.1873333,2.3606667 20.13,2.548 20.0753333,2.6806667 L16.146,13.6913333 C15.9373333,14.28 15.5,14.66 14.93,14.66 L14.7006667,14.66 C14.1326667,14.66 13.716,14.298 13.5053333,13.6913333 L10.544,5.0166667 L7.5833333,13.6913333 C7.3746667,14.298 6.9373333,14.66 6.37,14.66 L6.1406667,14.66 C5.57,14.66 5.1533333,14.298 4.9246667,13.6913333 L0.9973333,2.6806667 L0.9973333,2.6806667 Z" id="Fill-45"/>
                        <path d="M26.6093333,2.246 C26.6093333,1.6 27.12,1.0873333 27.7866667,1.0873333 C28.43,1.0873333 28.9426667,1.6 28.9426667,2.246 L28.9426667,13.4073333 C28.9426667,14.0533333 28.43,14.564 27.7866667,14.564 C27.12,14.564 26.6093333,14.0533333 26.6093333,13.4073333 L26.6093333,2.246 L26.6093333,2.246 Z" id="Fill-46"/>
                        <path d="M36.292,2.246 C36.292,1.6 36.8046667,1.0873333 37.4686667,1.0873333 C38.1146667,1.0873333 38.6273333,1.6 38.6273333,2.246 L38.6273333,7.8633333 L44.93,1.5246667 C45.1953333,1.238 45.4793333,1.0873333 45.896,1.0873333 C46.5413333,1.0873333 46.9793333,1.6 46.9793333,2.1706667 C46.9793333,2.53 46.828,2.7953333 46.56,3.0426667 L42.422,7.03 L46.9033333,12.59 C47.094,12.8373333 47.2266667,13.0666667 47.2266667,13.426 C47.2266667,14.0713333 46.7133333,14.564 46.0493333,14.564 C45.594,14.564 45.31,14.3373333 45.0626667,14.014 L40.792,8.5666667 L38.6273333,10.6546667 L38.6273333,13.4073333 C38.6273333,14.0533333 38.1146667,14.564 37.4686667,14.564 C36.8046667,14.564 36.292,14.0533333 36.292,13.4073333 L36.292,2.246 L36.292,2.246 Z" id="Fill-47"/>
                        <path d="M53.758,2.246 C53.758,1.6 54.270667,1.0873333 54.934667,1.0873333 C55.580667,1.0873333 56.094,1.6 56.094,2.246 L56.094,13.4073333 C56.094,14.0533333 55.580667,14.564 54.934667,14.564 C54.270667,14.564 53.758,14.0533333 53.758,13.4073333 L53.758,2.246 L53.758,2.246 Z" id="Fill-48"/>
                        <path d="M63.442667,2.246 C63.442667,1.6 63.956,1.0873333 64.617333,1.0873333 C65.265333,1.0873333 65.776,1.6 65.776,2.246 L65.776,12.3453333 L71.794,12.3453333 C72.382667,12.3453333 72.856667,12.8186667 72.856667,13.4073333 C72.856667,13.996 72.382667,14.47 71.794,14.47 L64.617333,14.47 C63.956,14.47 63.442667,13.9573333 63.442667,13.2926667 L63.442667,2.246 L63.442667,2.246 Z" id="Fill-49"/>
                        <path d="M78.992,13.2926667 L78.992,2.358 C78.992,1.694 79.505333,1.1833333 80.169333,1.1833333 L87.893333,1.1833333 C88.463333,1.1833333 88.937333,1.6573333 88.937333,2.2253333 C88.937333,2.814 88.463333,3.2693333 87.893333,3.2693333 L81.325333,3.2693333 L81.325333,6.7253333 L87.039333,6.7253333 C87.609333,6.7253333 88.083333,7.1993333 88.083333,7.788 C88.083333,8.358 87.609333,8.814 87.039333,8.814 L81.325333,8.814 L81.325333,12.3813333 L87.989333,12.3813333 C88.56,12.3813333 89.034,12.8553333 89.034,13.426 C89.034,14.014 88.56,14.47 87.989333,14.47 L80.169333,14.47 C79.505333,14.47 78.992,13.9573333 78.992,13.2926667" id="Fill-50"/>
                        <path d="M103.442667,9.1913333 L101.109333,3.8213333 L98.773333,9.1913333 L103.442667,9.1913333 L103.442667,9.1913333 Z M94.75,12.952 L99.684667,1.9413333 C99.950667,1.3526667 100.424667,0.9933333 101.091333,0.9933333 L101.203333,0.9933333 C101.867333,0.9933333 102.322667,1.3526667 102.588667,1.9413333 L107.526,12.952 C107.62,13.1213333 107.658667,13.2926667 107.658667,13.4466667 C107.658667,14.0713333 107.182,14.5666667 106.557333,14.5666667 C106.005333,14.5666667 105.627333,14.2406667 105.419333,13.7486667 L104.336,11.262 L97.882667,11.262 L96.763333,13.824 C96.572667,14.298 96.174667,14.5666667 95.68,14.5666667 C95.072667,14.5666667 94.598667,14.09 94.598667,13.4833333 C94.598667,13.3113333 94.656,13.142 94.75,12.952 L94.75,12.952 L94.75,12.952 Z" id="Fill-51"/>
                        <path d="M113.982,2.358 C113.982,1.694 114.494667,1.1833333 115.158667,1.1833333 L122.903333,1.1833333 C123.492,1.1833333 123.968667,1.6573333 123.968667,2.246 C123.968667,2.8346667 123.492,3.3086667 122.903333,3.3086667 L116.318,3.3086667 L116.318,6.9333333 L122.049333,6.9333333 C122.638,6.9333333 123.112,7.4073333 123.112,7.996 C123.112,8.5846667 122.638,9.0613333 122.049333,9.0613333 L116.318,9.0613333 L116.318,13.4073333 C116.318,14.0533333 115.804667,14.5666667 115.158667,14.5666667 C114.494667,14.5666667 113.982,14.0533333 113.982,13.4073333 L113.982,2.358 L113.982,2.358 Z" id="Fill-52"/>
                    </g>
                </g>
            </g>
        </g>
    </g>
</svg>